<svg xmlns="http://www.w3.org/2000/svg" class="svg-logo site-branding__logo" id="svg-logo" width="140" height="32" viewBox="0 0 523 120" fill="none"><path d="M0 34.8972C0 11.7026 14.4561 0 41.1429 0H119.141V49.5773H112.762C110.075 20.7853 97.2197 8.94904 71.1011 8.94904H55.0008C42.4662 8.94904 36.3743 15.198 36.3743 27.5355V91.609C36.3743 103.947 42.4628 110.195 55.0008 110.195H71.1111C96.8455 110.195 109.938 97.6575 112.759 67.9532H119.138V119.145H41.1462C14.4595 119.145 0.00334495 107.442 0.00334495 84.2473V34.8972H0Z" fill="#E71D1D"></path><path d="M254.704 0.00334495V119.148H222.984L145.04 24.2941V67.0008C145.04 98.416 157.641 110.065 186.079 113.163V119.148H135.562V0.00334495H172.047L245.227 89.0827V51.7226C245.227 20.518 232.572 8.75188 204.836 5.98496V0H254.704V0.00334495Z" fill="#E71D1D"></path><path d="M271.438 0.00335693H390.583V49.5806H384.204C381.504 20.6817 368.662 8.82207 342.543 8.82207H306.707V53.5004H318.847C339.114 53.5004 347.733 44.4044 349.784 24.8922H356.271V90.3826H349.784C347.746 70.7769 339.154 61.7477 318.847 61.7477H306.707V110.333H342.556C368.291 110.333 381.383 97.7577 384.204 67.9566H390.583V119.148H271.438V0.00335693Z" fill="#E71D1D"></path><path d="M522.315 0.00335693V49.5806H515.936C513.183 22.3091 501.784 9.64078 480.377 7.33836V91.1211C480.377 105.684 485.513 111.509 504.31 112.725V119.145H421.176V112.725C439.976 111.505 445.112 105.684 445.112 91.1211V7.33502C423.706 9.63744 412.307 22.3058 409.554 49.5773H403.171V0.00335693H522.315Z" fill="#E71D1D"></path><g clip-path="url(#clip0_1_47)"><path d="M514.388 118.283C513.651 117.859 513.071 117.257 512.647 116.498C512.223 115.739 512 114.914 512 113.976C512 113.039 512.223 112.191 512.647 111.432C513.071 110.674 513.651 110.071 514.388 109.647C515.124 109.223 515.95 109 516.843 109C517.735 109 518.583 109.223 519.342 109.647C520.078 110.071 520.681 110.674 521.105 111.432C521.529 112.191 521.752 113.039 521.752 113.976C521.752 114.914 521.529 115.739 521.105 116.498C520.681 117.257 520.078 117.837 519.342 118.283C518.605 118.707 517.757 118.931 516.843 118.931C515.928 118.931 515.124 118.707 514.388 118.283ZM518.94 117.659C519.565 117.279 520.056 116.788 520.413 116.141C520.77 115.494 520.949 114.78 520.949 113.976C520.949 113.173 520.77 112.437 520.413 111.789C520.056 111.142 519.565 110.629 518.94 110.25C518.315 109.87 517.624 109.692 516.843 109.692C516.061 109.692 515.392 109.87 514.767 110.25C514.142 110.629 513.651 111.12 513.294 111.789C512.937 112.437 512.759 113.173 512.759 113.976C512.759 114.78 512.937 115.494 513.294 116.141C513.651 116.788 514.142 117.279 514.767 117.659C515.392 118.038 516.084 118.216 516.843 118.216C517.601 118.216 518.315 118.038 518.94 117.659ZM514.923 111.098H517.244C517.757 111.098 518.204 111.232 518.583 111.499C518.963 111.767 519.141 112.191 519.141 112.794C519.141 113.396 519.029 113.508 518.806 113.776C518.583 114.021 518.293 114.222 517.914 114.311L517.802 113.954C518.204 113.999 518.516 114.133 518.695 114.378C518.896 114.624 518.985 114.914 518.985 115.271C518.985 115.628 519.007 115.963 519.052 116.141C519.096 116.32 519.186 116.476 519.342 116.61V116.744H518.338C518.226 116.587 518.159 116.409 518.137 116.23C518.115 116.029 518.07 115.695 518.048 115.204C518.048 114.936 517.936 114.735 517.78 114.646C517.601 114.534 517.267 114.49 516.798 114.49H515.861V116.744H514.923V111.098ZM517.891 113.485C518.092 113.374 518.181 113.128 518.181 112.794C518.181 112.459 518.07 112.258 517.869 112.147C517.668 112.013 517.378 111.968 517.021 111.968H515.861V113.686H517.021C517.4 113.686 517.691 113.619 517.891 113.508V113.485Z" fill="#E71D1D"></path></g><defs><clipPath id="clip0_1_47"><rect width="10" height="10" fill="white" transform="translate(512 109)"></rect></clipPath></defs></svg>